<svg id="visual" viewBox="0 0 675 900" width="675" height="900" xmlns="http://www.w3.org/2000/svg" xmlns:xlink="http://www.w3.org/1999/xlink" version="1.1"><g stroke-width="1" stroke-linejoin="bevel"><path d="M329.3 425.7L343.5 375.9L312.5 382.3Z" fill="#426987" stroke="#426987"></path><path d="M343.5 375.9L319.3 374.6L312.5 382.3Z" fill="#264156" stroke="#264156"></path><path d="M329.3 425.7L358.7 365.6L343.5 375.9Z" fill="#142838" stroke="#142838"></path><path d="M343.5 375.9L358.7 365.6L319.3 374.6Z" fill="#5685aa" stroke="#5685aa"></path><path d="M319.3 374.6L281.1 388.3L312.5 382.3Z" fill="#426987" stroke="#426987"></path><path d="M312.5 382.3L281.1 388.3L329.3 425.7Z" fill="#6094bc" stroke="#6094bc"></path><path d="M281.1 388.3L273.3 433.3L329.3 425.7Z" fill="#426987" stroke="#426987"></path><path d="M268.1 332.6L266.1 380.9L281.1 388.3Z" fill="#426987" stroke="#426987"></path><path d="M281.1 388.3L251.3 400.9L273.3 433.3Z" fill="#0c1c29" stroke="#0c1c29"></path><path d="M268.1 332.6L281.1 388.3L319.3 374.6Z" fill="#00101c" stroke="#00101c"></path><path d="M266.1 380.9L251.3 400.9L281.1 388.3Z" fill="#4c7798" stroke="#4c7798"></path><path d="M329.3 425.7L411.7 366.9L358.7 365.6Z" fill="#6094bc" stroke="#6094bc"></path><path d="M275.1 490.7L306.5 485.7L273.3 433.3Z" fill="#142838" stroke="#142838"></path><path d="M273.3 433.3L306.5 485.7L329.3 425.7Z" fill="#5685aa" stroke="#5685aa"></path><path d="M329.3 425.7L423.7 468.3L411.7 366.9Z" fill="#385b76" stroke="#385b76"></path><path d="M306.5 485.7L329.3 492.1L329.3 425.7Z" fill="#264156" stroke="#264156"></path><path d="M326.5 295.6L319.3 374.6L358.7 365.6Z" fill="#1d3447" stroke="#1d3447"></path><path d="M326.5 295.6L268.1 332.6L319.3 374.6Z" fill="#1d3447" stroke="#1d3447"></path><path d="M266.1 380.9L194.9 397.9L251.3 400.9Z" fill="#1d3447" stroke="#1d3447"></path><path d="M390.9 314.6L362.7 306.2L358.7 365.6Z" fill="#385b76" stroke="#385b76"></path><path d="M411.7 366.9L390.9 314.6L358.7 365.6Z" fill="#0c1c29" stroke="#0c1c29"></path><path d="M362.7 306.2L326.5 295.6L358.7 365.6Z" fill="#264156" stroke="#264156"></path><path d="M209.9 445.7L275.1 490.7L273.3 433.3Z" fill="#2f4e66" stroke="#2f4e66"></path><path d="M306.5 485.7L319.5 526.4L329.3 492.1Z" fill="#0c1c29" stroke="#0c1c29"></path><path d="M329.3 492.1L402.7 481.1L329.3 425.7Z" fill="#0c1c29" stroke="#0c1c29"></path><path d="M194.9 397.9L220.9 425.3L251.3 400.9Z" fill="#5685aa" stroke="#5685aa"></path><path d="M251.3 400.9L220.9 425.3L273.3 433.3Z" fill="#5685aa" stroke="#5685aa"></path><path d="M402.7 481.1L423.7 468.3L329.3 425.7Z" fill="#4c7798" stroke="#4c7798"></path><path d="M455.9 425.9L453.9 403.3L411.7 366.9Z" fill="#5685aa" stroke="#5685aa"></path><path d="M439.1 297.2L418.9 291.2L390.9 314.6Z" fill="#5685aa" stroke="#5685aa"></path><path d="M423.7 468.3L455.9 425.9L411.7 366.9Z" fill="#1d3447" stroke="#1d3447"></path><path d="M275.1 490.7L319.5 526.4L306.5 485.7Z" fill="#6094bc" stroke="#6094bc"></path><path d="M329.3 492.1L395.9 519.7L402.7 481.1Z" fill="#264156" stroke="#264156"></path><path d="M209.9 445.7L259.1 505.1L275.1 490.7Z" fill="#142838" stroke="#142838"></path><path d="M275.1 490.7L259.1 505.1L319.5 526.4Z" fill="#4c7798" stroke="#4c7798"></path><path d="M192.6 427.3L209.9 445.7L220.9 425.3Z" fill="#4c7798" stroke="#4c7798"></path><path d="M220.9 425.3L209.9 445.7L273.3 433.3Z" fill="#1d3447" stroke="#1d3447"></path><path d="M339.5 254.2L290.3 270.8L326.5 295.6Z" fill="#2f4e66" stroke="#2f4e66"></path><path d="M326.5 295.6L290.3 270.8L268.1 332.6Z" fill="#4c7798" stroke="#4c7798"></path><path d="M268.1 332.6L194.9 397.9L266.1 380.9Z" fill="#2f4e66" stroke="#2f4e66"></path><path d="M339.5 254.2L326.5 295.6L362.7 306.2Z" fill="#00101c" stroke="#00101c"></path><path d="M422.9 505.1L429.7 493.7L402.7 481.1Z" fill="#4c7798" stroke="#4c7798"></path><path d="M402.7 481.1L429.7 493.7L423.7 468.3Z" fill="#426987" stroke="#426987"></path><path d="M423.7 468.3L460.1 497.7L455.9 425.9Z" fill="#142838" stroke="#142838"></path><path d="M359.7 538.4L395.9 519.7L329.3 492.1Z" fill="#5685aa" stroke="#5685aa"></path><path d="M290.3 270.8L238.1 301.2L268.1 332.6Z" fill="#385b76" stroke="#385b76"></path><path d="M233.9 300.6L194.9 397.9L268.1 332.6Z" fill="#0c1c29" stroke="#0c1c29"></path><path d="M439.1 297.2L390.9 314.6L411.7 366.9Z" fill="#2f4e66" stroke="#2f4e66"></path><path d="M390.9 314.6L384.7 261.8L362.7 306.2Z" fill="#6094bc" stroke="#6094bc"></path><path d="M395.9 519.7L422.9 505.1L402.7 481.1Z" fill="#4c7798" stroke="#4c7798"></path><path d="M262.3 263.2L233.9 300.6L238.1 301.2Z" fill="#142838" stroke="#142838"></path><path d="M238.1 301.2L233.9 300.6L268.1 332.6Z" fill="#00101c" stroke="#00101c"></path><path d="M319.5 526.4L359.7 538.4L329.3 492.1Z" fill="#0c1c29" stroke="#0c1c29"></path><path d="M194.9 397.9L192.6 427.3L220.9 425.3Z" fill="#385b76" stroke="#385b76"></path><path d="M209.9 445.7L200.9 478.1L259.1 505.1Z" fill="#264156" stroke="#264156"></path><path d="M384.7 261.8L339.5 254.2L362.7 306.2Z" fill="#1d3447" stroke="#1d3447"></path><path d="M319.5 526.4L359.5 543.1L359.7 538.4Z" fill="#4c7798" stroke="#4c7798"></path><path d="M359.7 538.4L359.5 543.1L395.9 519.7Z" fill="#264156" stroke="#264156"></path><path d="M453.1 546.4L460.1 497.7L422.9 505.1Z" fill="#2f4e66" stroke="#2f4e66"></path><path d="M355.5 575.8L359.5 543.1L319.5 526.4Z" fill="#6094bc" stroke="#6094bc"></path><path d="M418.9 291.2L384.7 261.8L390.9 314.6Z" fill="#0c1c29" stroke="#0c1c29"></path><path d="M504.4 378.3L439.1 297.2L411.7 366.9Z" fill="#1d3447" stroke="#1d3447"></path><path d="M418.9 291.2L424.9 243.8L384.7 261.8Z" fill="#4c7798" stroke="#4c7798"></path><path d="M192.6 427.3L200.9 478.1L209.9 445.7Z" fill="#00101c" stroke="#00101c"></path><path d="M290.3 270.8L262.3 263.2L238.1 301.2Z" fill="#5685aa" stroke="#5685aa"></path><path d="M264.1 236.5L262.3 263.2L290.3 270.8Z" fill="#0c1c29" stroke="#0c1c29"></path><path d="M520.4 283.6L438.1 284.6L439.1 297.2Z" fill="#0c1c29" stroke="#0c1c29"></path><path d="M439.1 297.2L438.1 284.6L418.9 291.2Z" fill="#2f4e66" stroke="#2f4e66"></path><path d="M453.1 546.4L422.9 505.1L441.9 560.4Z" fill="#00101c" stroke="#00101c"></path><path d="M422.9 505.1L460.1 497.7L429.7 493.7Z" fill="#142838" stroke="#142838"></path><path d="M429.7 493.7L460.1 497.7L423.7 468.3Z" fill="#142838" stroke="#142838"></path><path d="M455.9 425.9L497.1 391.9L453.9 403.3Z" fill="#385b76" stroke="#385b76"></path><path d="M453.9 403.3L504.4 378.3L411.7 366.9Z" fill="#142838" stroke="#142838"></path><path d="M506.1 436.3L497.1 391.9L455.9 425.9Z" fill="#142838" stroke="#142838"></path><path d="M542.6 412.9L504.4 378.3L497.1 391.9Z" fill="#426987" stroke="#426987"></path><path d="M497.1 391.9L504.4 378.3L453.9 403.3Z" fill="#142838" stroke="#142838"></path><path d="M334.5 203.8L264.1 236.5L339.5 254.2Z" fill="#142838" stroke="#142838"></path><path d="M339.5 254.2L264.1 236.5L290.3 270.8Z" fill="#426987" stroke="#426987"></path><path d="M262.3 263.2L202.1 256.8L233.9 300.6Z" fill="#2f4e66" stroke="#2f4e66"></path><path d="M332.5 614.2L355.5 575.8L302.3 614.8Z" fill="#426987" stroke="#426987"></path><path d="M359.5 543.1L441.9 560.4L395.9 519.7Z" fill="#6094bc" stroke="#6094bc"></path><path d="M255.1 594.4L319.5 526.4L259.1 505.1Z" fill="#426987" stroke="#426987"></path><path d="M460.1 497.7L506.1 436.3L455.9 425.9Z" fill="#5685aa" stroke="#5685aa"></path><path d="M461.9 216.5L424.9 243.8L438.1 284.6Z" fill="#1d3447" stroke="#1d3447"></path><path d="M438.1 284.6L424.9 243.8L418.9 291.2Z" fill="#0c1c29" stroke="#0c1c29"></path><path d="M384.7 261.8L334.5 203.8L339.5 254.2Z" fill="#385b76" stroke="#385b76"></path><path d="M202.1 256.8L171.9 314.2L233.9 300.6Z" fill="#142838" stroke="#142838"></path><path d="M233.9 300.6L171.9 314.2L194.9 397.9Z" fill="#2f4e66" stroke="#2f4e66"></path><path d="M194.9 397.9L137.6 436.7L192.6 427.3Z" fill="#5685aa" stroke="#5685aa"></path><path d="M192.6 427.3L137.6 436.7L200.9 478.1Z" fill="#142838" stroke="#142838"></path><path d="M441.9 560.4L422.9 505.1L395.9 519.7Z" fill="#426987" stroke="#426987"></path><path d="M460.1 497.7L501.1 499.1L506.1 436.3Z" fill="#6094bc" stroke="#6094bc"></path><path d="M264.1 236.5L202.1 256.8L262.3 263.2Z" fill="#4c7798" stroke="#4c7798"></path><path d="M355.5 575.8L441.9 560.4L359.5 543.1Z" fill="#2f4e66" stroke="#2f4e66"></path><path d="M361.7 174.5L334.5 203.8L384.7 261.8Z" fill="#0c1c29" stroke="#0c1c29"></path><path d="M264.1 236.5L192.9 224.8L202.1 256.8Z" fill="#264156" stroke="#264156"></path><path d="M538.4 478.7L501.1 499.1L560.6 506.7Z" fill="#4c7798" stroke="#4c7798"></path><path d="M453.1 546.4L501.1 499.1L460.1 497.7Z" fill="#4c7798" stroke="#4c7798"></path><path d="M120.4 399.9L137.6 436.7L194.9 397.9Z" fill="#426987" stroke="#426987"></path><path d="M190.6 557.1L259.1 505.1L200.9 478.1Z" fill="#385b76" stroke="#385b76"></path><path d="M190.6 557.1L255.1 594.4L259.1 505.1Z" fill="#264156" stroke="#264156"></path><path d="M355.5 575.8L377.7 616.8L441.9 560.4Z" fill="#5685aa" stroke="#5685aa"></path><path d="M538.4 478.7L542.6 412.9L506.1 436.3Z" fill="#6094bc" stroke="#6094bc"></path><path d="M506.1 436.3L542.6 412.9L497.1 391.9Z" fill="#6094bc" stroke="#6094bc"></path><path d="M504.4 378.3L535.4 342.9L439.1 297.2Z" fill="#385b76" stroke="#385b76"></path><path d="M542.6 412.9L535.4 342.9L504.4 378.3Z" fill="#264156" stroke="#264156"></path><path d="M158.6 555.4L190.6 557.1L200.9 478.1Z" fill="#5685aa" stroke="#5685aa"></path><path d="M121.6 330.6L120.4 399.9L194.9 397.9Z" fill="#5685aa" stroke="#5685aa"></path><path d="M137.6 436.7L158.6 555.4L200.9 478.1Z" fill="#6094bc" stroke="#6094bc"></path><path d="M121.6 330.6L194.9 397.9L171.9 314.2Z" fill="#00101c" stroke="#00101c"></path><path d="M302.3 614.8L355.5 575.8L319.5 526.4Z" fill="#4c7798" stroke="#4c7798"></path><path d="M255.1 594.4L302.3 614.8L319.5 526.4Z" fill="#2f4e66" stroke="#2f4e66"></path><path d="M560.6 506.7L501.1 499.1L543.4 544.4Z" fill="#426987" stroke="#426987"></path><path d="M501.1 499.1L538.4 478.7L506.1 436.3Z" fill="#1d3447" stroke="#1d3447"></path><path d="M535.4 342.9L520.4 283.6L439.1 297.2Z" fill="#385b76" stroke="#385b76"></path><path d="M424.9 243.8L361.7 174.5L384.7 261.8Z" fill="#142838" stroke="#142838"></path><path d="M110.6 307.2L121.6 330.6L171.9 314.2Z" fill="#426987" stroke="#426987"></path><path d="M296.3 672.5L377.7 616.8L332.5 614.2Z" fill="#385b76" stroke="#385b76"></path><path d="M332.5 614.2L377.7 616.8L355.5 575.8Z" fill="#6094bc" stroke="#6094bc"></path><path d="M508.4 601.8L543.4 544.4L453.1 546.4Z" fill="#00101c" stroke="#00101c"></path><path d="M274.3 176.5L192.9 224.8L264.1 236.5Z" fill="#142838" stroke="#142838"></path><path d="M202.1 256.8L121.6 277.8L171.9 314.2Z" fill="#142838" stroke="#142838"></path><path d="M96.2 440.3L109.6 425.9L91.2 400.9Z" fill="#5685aa" stroke="#5685aa"></path><path d="M120.4 399.9L109.6 425.9L137.6 436.7Z" fill="#2f4e66" stroke="#2f4e66"></path><path d="M512.4 229.5L461.9 216.5L438.1 284.6Z" fill="#2f4e66" stroke="#2f4e66"></path><path d="M255.1 594.4L262.3 614.4L302.3 614.8Z" fill="#1d3447" stroke="#1d3447"></path><path d="M302.3 614.8L311.3 627.2L332.5 614.2Z" fill="#6094bc" stroke="#6094bc"></path><path d="M238.1 634.8L262.3 614.4L255.1 594.4Z" fill="#142838" stroke="#142838"></path><path d="M461.9 216.5L361.7 174.5L424.9 243.8Z" fill="#5685aa" stroke="#5685aa"></path><path d="M334.5 203.8L274.3 176.5L264.1 236.5Z" fill="#142838" stroke="#142838"></path><path d="M192.9 224.8L177.9 232.5L202.1 256.8Z" fill="#264156" stroke="#264156"></path><path d="M289.5 665.5L311.3 627.2L302.3 614.8Z" fill="#00101c" stroke="#00101c"></path><path d="M336.3 164.1L274.3 176.5L334.5 203.8Z" fill="#5685aa" stroke="#5685aa"></path><path d="M192.9 224.8L170.9 175.1L177.9 232.5Z" fill="#2f4e66" stroke="#2f4e66"></path><path d="M88.4 451.3L158.6 555.4L137.6 436.7Z" fill="#0c1c29" stroke="#0c1c29"></path><path d="M190.6 557.1L187.9 606.4L255.1 594.4Z" fill="#2f4e66" stroke="#2f4e66"></path><path d="M361.7 174.5L336.3 164.1L334.5 203.8Z" fill="#0c1c29" stroke="#0c1c29"></path><path d="M512.4 229.5L471.1 206.5L461.9 216.5Z" fill="#264156" stroke="#264156"></path><path d="M461.9 216.5L400.9 135.1L361.7 174.5Z" fill="#1d3447" stroke="#1d3447"></path><path d="M361.7 174.5L350.5 153.5L336.3 164.1Z" fill="#264156" stroke="#264156"></path><path d="M91.2 400.9L109.6 425.9L120.4 399.9Z" fill="#264156" stroke="#264156"></path><path d="M109.6 425.9L96.2 440.3L137.6 436.7Z" fill="#0c1c29" stroke="#0c1c29"></path><path d="M433.1 625.2L423.9 621.2L431.9 635.8Z" fill="#0c1c29" stroke="#0c1c29"></path><path d="M377.7 616.8L423.9 621.2L441.9 560.4Z" fill="#2f4e66" stroke="#2f4e66"></path><path d="M121.6 277.8L110.6 307.2L171.9 314.2Z" fill="#5685aa" stroke="#5685aa"></path><path d="M92.4 350.6L91.2 400.9L120.4 399.9Z" fill="#1d3447" stroke="#1d3447"></path><path d="M92.4 350.6L120.4 399.9L121.6 330.6Z" fill="#5685aa" stroke="#5685aa"></path><path d="M177.9 232.5L121.6 277.8L202.1 256.8Z" fill="#4c7798" stroke="#4c7798"></path><path d="M57.4 318.2L92.4 350.6L110.6 307.2Z" fill="#5685aa" stroke="#5685aa"></path><path d="M110.6 307.2L92.4 350.6L121.6 330.6Z" fill="#385b76" stroke="#385b76"></path><path d="M365.7 128.7L350.5 153.5L361.7 174.5Z" fill="#0c1c29" stroke="#0c1c29"></path><path d="M336.3 164.1L299.5 141.1L274.3 176.5Z" fill="#2f4e66" stroke="#2f4e66"></path><path d="M431.9 635.8L423.9 621.2L377.7 616.8Z" fill="#1d3447" stroke="#1d3447"></path><path d="M423.9 621.2L433.1 625.2L441.9 560.4Z" fill="#385b76" stroke="#385b76"></path><path d="M535.4 342.9L568.4 325.2L520.4 283.6Z" fill="#426987" stroke="#426987"></path><path d="M520.4 283.6L512.4 229.5L438.1 284.6Z" fill="#264156" stroke="#264156"></path><path d="M602.8 377.3L568.4 325.2L535.4 342.9Z" fill="#2f4e66" stroke="#2f4e66"></path><path d="M602.8 377.3L535.4 342.9L542.6 412.9Z" fill="#4c7798" stroke="#4c7798"></path><path d="M568.6 248.2L512.4 229.5L520.4 283.6Z" fill="#5685aa" stroke="#5685aa"></path><path d="M84.2 442.7L96.2 440.3L91.2 400.9Z" fill="#6094bc" stroke="#6094bc"></path><path d="M84.2 442.7L88.4 451.3L96.2 440.3Z" fill="#1d3447" stroke="#1d3447"></path><path d="M96.2 440.3L88.4 451.3L137.6 436.7Z" fill="#0c1c29" stroke="#0c1c29"></path><path d="M47.4 464.7L84.2 442.7L0 425.3Z" fill="#4c7798" stroke="#4c7798"></path><path d="M130.6 586.8L187.9 606.4L158.6 555.4Z" fill="#142838" stroke="#142838"></path><path d="M158.6 555.4L187.9 606.4L190.6 557.1Z" fill="#6094bc" stroke="#6094bc"></path><path d="M262.3 614.4L289.5 665.5L302.3 614.8Z" fill="#142838" stroke="#142838"></path><path d="M543.4 544.4L501.1 499.1L453.1 546.4Z" fill="#6094bc" stroke="#6094bc"></path><path d="M538.4 478.7L583.6 448.3L542.6 412.9Z" fill="#0c1c29" stroke="#0c1c29"></path><path d="M218.9 629.2L238.1 634.8L255.1 594.4Z" fill="#2f4e66" stroke="#2f4e66"></path><path d="M407.7 710.2L431.9 635.8L377.7 616.8Z" fill="#6094bc" stroke="#6094bc"></path><path d="M187.9 606.4L218.9 629.2L255.1 594.4Z" fill="#4c7798" stroke="#4c7798"></path><path d="M508.4 601.8L453.1 546.4L441.9 560.4Z" fill="#264156" stroke="#264156"></path><path d="M560.6 506.7L583.6 448.3L538.4 478.7Z" fill="#2f4e66" stroke="#2f4e66"></path><path d="M296.3 672.5L332.5 614.2L311.3 627.2Z" fill="#0c1c29" stroke="#0c1c29"></path><path d="M433.1 625.2L508.4 601.8L441.9 560.4Z" fill="#385b76" stroke="#385b76"></path><path d="M350.5 153.5L299.5 141.1L336.3 164.1Z" fill="#6094bc" stroke="#6094bc"></path><path d="M274.3 176.5L170.9 175.1L192.9 224.8Z" fill="#426987" stroke="#426987"></path><path d="M543.4 544.4L570.4 510.1L560.6 506.7Z" fill="#142838" stroke="#142838"></path><path d="M560.6 506.7L570.4 510.1L583.6 448.3Z" fill="#4c7798" stroke="#4c7798"></path><path d="M608.8 488.1L595.8 424.9L583.6 448.3Z" fill="#2f4e66" stroke="#2f4e66"></path><path d="M583.6 448.3L595.8 424.9L542.6 412.9Z" fill="#0c1c29" stroke="#0c1c29"></path><path d="M568.6 248.2L515.4 206.8L512.4 229.5Z" fill="#0c1c29" stroke="#0c1c29"></path><path d="M512.4 229.5L515.4 206.8L471.1 206.5Z" fill="#5685aa" stroke="#5685aa"></path><path d="M400.9 135.1L365.7 128.7L361.7 174.5Z" fill="#385b76" stroke="#385b76"></path><path d="M218.9 629.2L231.9 647.8L238.1 634.8Z" fill="#4c7798" stroke="#4c7798"></path><path d="M238.1 634.8L289.5 665.5L262.3 614.4Z" fill="#2f4e66" stroke="#2f4e66"></path><path d="M208.1 689.2L231.9 647.8L218.9 629.2Z" fill="#0c1c29" stroke="#0c1c29"></path><path d="M515.1 643.8L508.4 601.8L433.1 625.2Z" fill="#0c1c29" stroke="#0c1c29"></path><path d="M543.4 544.4L583.6 541.1L570.4 510.1Z" fill="#385b76" stroke="#385b76"></path><path d="M231.9 647.8L289.5 665.5L238.1 634.8Z" fill="#385b76" stroke="#385b76"></path><path d="M595.8 424.9L602.8 377.3L542.6 412.9Z" fill="#5685aa" stroke="#5685aa"></path><path d="M528.1 172.1L511.1 189.8L515.4 206.8Z" fill="#2f4e66" stroke="#2f4e66"></path><path d="M400.9 135.1L461.9 216.5L471.1 206.5Z" fill="#5685aa" stroke="#5685aa"></path><path d="M350.5 153.5L365.7 128.7L299.5 141.1Z" fill="#4c7798" stroke="#4c7798"></path><path d="M481.4 142.1L400.9 135.1L471.1 206.5Z" fill="#4c7798" stroke="#4c7798"></path><path d="M89.2 552.4L130.6 586.8L158.6 555.4Z" fill="#00101c" stroke="#00101c"></path><path d="M187.9 606.4L208.1 689.2L218.9 629.2Z" fill="#1d3447" stroke="#1d3447"></path><path d="M89.2 552.4L158.6 555.4L69.4 525.4Z" fill="#0c1c29" stroke="#0c1c29"></path><path d="M226.9 741.5L296.3 672.5L289.5 665.5Z" fill="#4c7798" stroke="#4c7798"></path><path d="M289.5 665.5L296.3 672.5L311.3 627.2Z" fill="#6094bc" stroke="#6094bc"></path><path d="M568.6 248.2L520.4 283.6L568.4 325.2Z" fill="#5685aa" stroke="#5685aa"></path><path d="M515.4 206.8L511.1 189.8L471.1 206.5Z" fill="#6094bc" stroke="#6094bc"></path><path d="M214.1 103.1L170.9 175.1L274.3 176.5Z" fill="#385b76" stroke="#385b76"></path><path d="M177.9 232.5L124.6 179.5L121.6 277.8Z" fill="#142838" stroke="#142838"></path><path d="M434.1 79.7L393.7 127.1L400.9 135.1Z" fill="#4c7798" stroke="#4c7798"></path><path d="M400.9 135.1L393.7 127.1L365.7 128.7Z" fill="#0c1c29" stroke="#0c1c29"></path><path d="M619.6 282.6L568.6 248.2L568.4 325.2Z" fill="#4c7798" stroke="#4c7798"></path><path d="M57.2 285.6L110.6 307.2L121.6 277.8Z" fill="#426987" stroke="#426987"></path><path d="M57.2 285.6L57.4 318.2L110.6 307.2Z" fill="#426987" stroke="#426987"></path><path d="M0 353.6L0 401.9L91.2 400.9Z" fill="#426987" stroke="#426987"></path><path d="M69.4 525.4L88.4 451.3L47.4 494.1Z" fill="#142838" stroke="#142838"></path><path d="M69.4 525.4L158.6 555.4L88.4 451.3Z" fill="#5685aa" stroke="#5685aa"></path><path d="M599.8 583.8L583.6 541.1L543.4 544.4Z" fill="#00101c" stroke="#00101c"></path><path d="M570.4 510.1L608.8 488.1L583.6 448.3Z" fill="#6094bc" stroke="#6094bc"></path><path d="M675 448.3L653.8 350.6L602.8 377.3Z" fill="#426987" stroke="#426987"></path><path d="M605.8 498.7L608.8 488.1L570.4 510.1Z" fill="#1d3447" stroke="#1d3447"></path><path d="M583.6 541.1L605.8 498.7L570.4 510.1Z" fill="#142838" stroke="#142838"></path><path d="M47.4 464.7L88.4 451.3L84.2 442.7Z" fill="#6094bc" stroke="#6094bc"></path><path d="M0 425.3L84.2 442.7L91.2 400.9Z" fill="#6094bc" stroke="#6094bc"></path><path d="M528.1 172.1L481.4 142.1L511.1 189.8Z" fill="#1d3447" stroke="#1d3447"></path><path d="M511.1 189.8L481.4 142.1L471.1 206.5Z" fill="#385b76" stroke="#385b76"></path><path d="M65.2 205.8L57.2 285.6L121.6 277.8Z" fill="#4c7798" stroke="#4c7798"></path><path d="M57.4 318.2L0 353.6L92.4 350.6Z" fill="#0c1c29" stroke="#0c1c29"></path><path d="M47.4 464.7L47.4 494.1L88.4 451.3Z" fill="#0c1c29" stroke="#0c1c29"></path><path d="M584.8 208.8L528.1 172.1L515.4 206.8Z" fill="#6094bc" stroke="#6094bc"></path><path d="M57.2 285.6L42.2 316.2L57.4 318.2Z" fill="#0c1c29" stroke="#0c1c29"></path><path d="M47.4 464.7L0 489.1L47.4 494.1Z" fill="#264156" stroke="#264156"></path><path d="M118.4 130.1L124.6 179.5L170.9 175.1Z" fill="#264156" stroke="#264156"></path><path d="M170.9 175.1L124.6 179.5L177.9 232.5Z" fill="#1d3447" stroke="#1d3447"></path><path d="M431.9 635.8L515.1 643.8L433.1 625.2Z" fill="#2f4e66" stroke="#2f4e66"></path><path d="M508.4 601.8L599.8 583.8L543.4 544.4Z" fill="#1d3447" stroke="#1d3447"></path><path d="M462.9 702.5L515.1 643.8L431.9 635.8Z" fill="#1d3447" stroke="#1d3447"></path><path d="M653.8 350.6L619.6 282.6L568.4 325.2Z" fill="#264156" stroke="#264156"></path><path d="M568.6 248.2L584.8 208.8L515.4 206.8Z" fill="#00101c" stroke="#00101c"></path><path d="M653.8 350.6L568.4 325.2L602.8 377.3Z" fill="#00101c" stroke="#00101c"></path><path d="M231.9 647.8L208.1 689.2L289.5 665.5Z" fill="#5685aa" stroke="#5685aa"></path><path d="M296.3 672.5L407.7 710.2L377.7 616.8Z" fill="#385b76" stroke="#385b76"></path><path d="M173.6 700.5L208.1 689.2L187.9 606.4Z" fill="#426987" stroke="#426987"></path><path d="M173.6 700.5L187.9 606.4L117.6 674.2Z" fill="#426987" stroke="#426987"></path><path d="M118.4 130.1L102.4 183.5L124.6 179.5Z" fill="#2f4e66" stroke="#2f4e66"></path><path d="M124.6 179.5L102.4 183.5L121.6 277.8Z" fill="#426987" stroke="#426987"></path><path d="M0 244.8L0 353.6L42.2 316.2Z" fill="#0c1c29" stroke="#0c1c29"></path><path d="M614.6 211.8L584.8 208.8L568.6 248.2Z" fill="#426987" stroke="#426987"></path><path d="M213.1 93.7L214.1 103.1L267.3 70.7Z" fill="#2f4e66" stroke="#2f4e66"></path><path d="M299.5 141.1L214.1 103.1L274.3 176.5Z" fill="#142838" stroke="#142838"></path><path d="M214.1 103.1L299.5 141.1L267.3 70.7Z" fill="#426987" stroke="#426987"></path><path d="M426.7 730.5L407.7 710.2L391.7 742.9Z" fill="#142838" stroke="#142838"></path><path d="M675 465.7L675 448.3L608.8 488.1Z" fill="#5685aa" stroke="#5685aa"></path><path d="M583.6 541.1L637.8 563.4L605.8 498.7Z" fill="#4c7798" stroke="#4c7798"></path><path d="M586.8 637.2L599.8 583.8L508.4 601.8Z" fill="#4c7798" stroke="#4c7798"></path><path d="M602.8 377.3L595.8 424.9L675 448.3Z" fill="#0c1c29" stroke="#0c1c29"></path><path d="M675 352.9L653.8 350.6L675 448.3Z" fill="#0c1c29" stroke="#0c1c29"></path><path d="M619.6 282.6L614.6 211.8L568.6 248.2Z" fill="#6094bc" stroke="#6094bc"></path><path d="M71.2 186.1L73.2 200.5L102.4 183.5Z" fill="#385b76" stroke="#385b76"></path><path d="M102.4 183.5L73.2 200.5L121.6 277.8Z" fill="#00101c" stroke="#00101c"></path><path d="M267.3 70.7L299.5 141.1L314.5 58.4Z" fill="#6094bc" stroke="#6094bc"></path><path d="M146.6 100.1L118.4 130.1L170.9 175.1Z" fill="#2f4e66" stroke="#2f4e66"></path><path d="M299.5 141.1L365.7 128.7L314.5 58.4Z" fill="#385b76" stroke="#385b76"></path><path d="M69.4 525.4L51.4 569.8L89.2 552.4Z" fill="#0c1c29" stroke="#0c1c29"></path><path d="M89.2 552.4L51.4 569.8L130.6 586.8Z" fill="#264156" stroke="#264156"></path><path d="M8.2 566.1L51.4 569.8L69.4 525.4Z" fill="#5685aa" stroke="#5685aa"></path><path d="M71.2 186.1L65.2 205.8L73.2 200.5Z" fill="#0c1c29" stroke="#0c1c29"></path><path d="M73.2 200.5L65.2 205.8L121.6 277.8Z" fill="#0c1c29" stroke="#0c1c29"></path><path d="M407.7 710.2L462.9 702.5L431.9 635.8Z" fill="#5685aa" stroke="#5685aa"></path><path d="M515.1 643.8L560.6 651.8L508.4 601.8Z" fill="#385b76" stroke="#385b76"></path><path d="M0 353.6L57.4 318.2L42.2 316.2Z" fill="#5685aa" stroke="#5685aa"></path><path d="M0 353.6L91.2 400.9L92.4 350.6Z" fill="#2f4e66" stroke="#2f4e66"></path><path d="M47.4 494.1L8.2 566.1L69.4 525.4Z" fill="#6094bc" stroke="#6094bc"></path><path d="M0 401.9L0 425.3L91.2 400.9Z" fill="#385b76" stroke="#385b76"></path><path d="M0 425.3L0 433.7L47.4 464.7Z" fill="#426987" stroke="#426987"></path><path d="M394.9 51.7L365.7 128.7L393.7 127.1Z" fill="#2f4e66" stroke="#2f4e66"></path><path d="M0 244.8L42.2 316.2L57.2 285.6Z" fill="#385b76" stroke="#385b76"></path><path d="M454.9 52.4L434.1 79.7L481.4 142.1Z" fill="#00101c" stroke="#00101c"></path><path d="M481.4 142.1L434.1 79.7L400.9 135.1Z" fill="#6094bc" stroke="#6094bc"></path><path d="M527.4 111.7L481.4 142.1L528.1 172.1Z" fill="#426987" stroke="#426987"></path><path d="M66.2 137.7L71.2 186.1L102.4 183.5Z" fill="#142838" stroke="#142838"></path><path d="M65.2 205.8L50.4 200.8L57.2 285.6Z" fill="#142838" stroke="#142838"></path><path d="M675 238.2L614.6 211.8L619.6 282.6Z" fill="#4c7798" stroke="#4c7798"></path><path d="M581.8 147.1L527.4 111.7L528.1 172.1Z" fill="#142838" stroke="#142838"></path><path d="M117.6 674.2L187.9 606.4L130.6 586.8Z" fill="#385b76" stroke="#385b76"></path><path d="M391.7 742.9L407.7 710.2L296.3 672.5Z" fill="#2f4e66" stroke="#2f4e66"></path><path d="M498.4 711.2L560.6 651.8L515.1 643.8Z" fill="#4c7798" stroke="#4c7798"></path><path d="M394.9 51.7L314.5 58.4L365.7 128.7Z" fill="#0c1c29" stroke="#0c1c29"></path><path d="M394.9 51.7L314.5 57.7L314.5 58.4Z" fill="#264156" stroke="#264156"></path><path d="M314.5 58.4L277.3 39.4L267.3 70.7Z" fill="#00101c" stroke="#00101c"></path><path d="M146.6 100.1L170.9 175.1L214.1 103.1Z" fill="#1d3447" stroke="#1d3447"></path><path d="M146.6 100.1L214.1 103.1L213.1 93.7Z" fill="#2f4e66" stroke="#2f4e66"></path><path d="M0 433.7L0 489.1L47.4 464.7Z" fill="#142838" stroke="#142838"></path><path d="M407.7 710.2L426.7 730.5L462.9 702.5Z" fill="#2f4e66" stroke="#2f4e66"></path><path d="M462.9 702.5L498.4 711.2L515.1 643.8Z" fill="#426987" stroke="#426987"></path><path d="M391.7 742.9L296.3 672.5L321.5 799.9Z" fill="#426987" stroke="#426987"></path><path d="M66.2 137.7L50.4 200.8L71.2 186.1Z" fill="#5685aa" stroke="#5685aa"></path><path d="M71.2 186.1L50.4 200.8L65.2 205.8Z" fill="#385b76" stroke="#385b76"></path><path d="M675 448.3L595.8 424.9L608.8 488.1Z" fill="#2f4e66" stroke="#2f4e66"></path><path d="M653.8 350.6L675 330.6L619.6 282.6Z" fill="#5685aa" stroke="#5685aa"></path><path d="M675 465.7L608.8 488.1L675 544.1Z" fill="#426987" stroke="#426987"></path><path d="M626.6 607.4L637.8 563.4L599.8 583.8Z" fill="#142838" stroke="#142838"></path><path d="M599.8 583.8L637.8 563.4L583.6 541.1Z" fill="#1d3447" stroke="#1d3447"></path><path d="M581.8 147.1L528.1 172.1L584.8 208.8Z" fill="#4c7798" stroke="#4c7798"></path><path d="M626.6 642.2L586.8 637.2L577.8 729.5Z" fill="#6094bc" stroke="#6094bc"></path><path d="M560.6 651.8L586.8 637.2L508.4 601.8Z" fill="#6094bc" stroke="#6094bc"></path><path d="M226.9 741.5L289.5 665.5L208.1 689.2Z" fill="#264156" stroke="#264156"></path><path d="M65.2 668.2L117.6 674.2L130.6 586.8Z" fill="#142838" stroke="#142838"></path><path d="M65.2 668.2L130.6 586.8L51.4 569.8Z" fill="#0c1c29" stroke="#0c1c29"></path><path d="M675 544.1L608.8 488.1L605.8 498.7Z" fill="#6094bc" stroke="#6094bc"></path><path d="M675 352.9L675 330.6L653.8 350.6Z" fill="#385b76" stroke="#385b76"></path><path d="M131.6 70.7L146.6 100.1L213.1 93.7Z" fill="#2f4e66" stroke="#2f4e66"></path><path d="M0 242.2L0 244.8L50.4 200.8Z" fill="#2f4e66" stroke="#2f4e66"></path><path d="M235.9 52.7L213.1 93.7L267.3 70.7Z" fill="#2f4e66" stroke="#2f4e66"></path><path d="M675 330.6L664.8 283.2L619.6 282.6Z" fill="#0c1c29" stroke="#0c1c29"></path><path d="M496.1 721.5L498.4 711.2L462.9 702.5Z" fill="#264156" stroke="#264156"></path><path d="M496.1 721.5L462.9 702.5L474.9 732.9Z" fill="#264156" stroke="#264156"></path><path d="M454.9 52.4L394.9 51.7L434.1 79.7Z" fill="#5685aa" stroke="#5685aa"></path><path d="M434.1 79.7L394.9 51.7L393.7 127.1Z" fill="#0c1c29" stroke="#0c1c29"></path><path d="M615.6 167.1L581.8 147.1L584.8 208.8Z" fill="#264156" stroke="#264156"></path><path d="M615.6 167.1L584.8 208.8L614.6 211.8Z" fill="#4c7798" stroke="#4c7798"></path><path d="M221.1 742.9L208.1 689.2L173.6 700.5Z" fill="#0c1c29" stroke="#0c1c29"></path><path d="M221.1 742.9L226.9 741.5L208.1 689.2Z" fill="#0c1c29" stroke="#0c1c29"></path><path d="M8.2 566.1L30.2 593.8L51.4 569.8Z" fill="#5685aa" stroke="#5685aa"></path><path d="M277.3 39.4L314.5 58.4L314.5 57.7Z" fill="#142838" stroke="#142838"></path><path d="M277.3 39.4L235.9 52.7L267.3 70.7Z" fill="#6094bc" stroke="#6094bc"></path><path d="M586.8 637.2L626.6 607.4L599.8 583.8Z" fill="#1d3447" stroke="#1d3447"></path><path d="M637.8 563.4L675 544.1L605.8 498.7Z" fill="#6094bc" stroke="#6094bc"></path><path d="M626.6 642.2L626.6 607.4L586.8 637.2Z" fill="#385b76" stroke="#385b76"></path><path d="M221.1 742.9L231.9 745.9L226.9 741.5Z" fill="#264156" stroke="#264156"></path><path d="M226.9 741.5L241.1 749.5L296.3 672.5Z" fill="#6094bc" stroke="#6094bc"></path><path d="M145.6 728.9L221.1 742.9L173.6 700.5Z" fill="#426987" stroke="#426987"></path><path d="M474.9 732.9L462.9 702.5L426.7 730.5Z" fill="#1d3447" stroke="#1d3447"></path><path d="M498.4 711.2L577.8 729.5L560.6 651.8Z" fill="#4c7798" stroke="#4c7798"></path><path d="M279.3 782.9L241.1 749.5L229.1 807.3Z" fill="#1d3447" stroke="#1d3447"></path><path d="M231.9 745.9L241.1 749.5L226.9 741.5Z" fill="#0c1c29" stroke="#0c1c29"></path><path d="M456.1 785.3L474.9 732.9L426.7 730.5Z" fill="#0c1c29" stroke="#0c1c29"></path><path d="M0 489.1L8.2 566.1L47.4 494.1Z" fill="#2f4e66" stroke="#2f4e66"></path><path d="M297.3 0L277.3 39.4L314.5 57.7Z" fill="#264156" stroke="#264156"></path><path d="M394.7 774.3L401.9 758.3L391.7 742.9Z" fill="#6094bc" stroke="#6094bc"></path><path d="M391.7 742.9L401.9 758.3L426.7 730.5Z" fill="#00101c" stroke="#00101c"></path><path d="M0 242.2L50.4 200.8L0 221.5Z" fill="#6094bc" stroke="#6094bc"></path><path d="M50.4 200.8L0 244.8L57.2 285.6Z" fill="#264156" stroke="#264156"></path><path d="M622.6 166.5L615.6 167.1L614.6 211.8Z" fill="#00101c" stroke="#00101c"></path><path d="M581.8 147.1L543.6 78.7L527.4 111.7Z" fill="#5685aa" stroke="#5685aa"></path><path d="M675 330.6L675 268.8L664.8 283.2Z" fill="#2f4e66" stroke="#2f4e66"></path><path d="M664.8 283.2L675 268.8L619.6 282.6Z" fill="#1d3447" stroke="#1d3447"></path><path d="M66.2 137.7L102.4 183.5L118.4 130.1Z" fill="#1d3447" stroke="#1d3447"></path><path d="M622.6 166.5L615.8 165.5L615.6 167.1Z" fill="#4c7798" stroke="#4c7798"></path><path d="M615.6 167.1L615.8 165.5L581.8 147.1Z" fill="#1d3447" stroke="#1d3447"></path><path d="M527.4 111.7L454.9 52.4L481.4 142.1Z" fill="#264156" stroke="#264156"></path><path d="M294.5 0L247.1 22.4L277.3 39.4Z" fill="#0c1c29" stroke="#0c1c29"></path><path d="M512.1 49.4L454.9 52.4L527.4 111.7Z" fill="#2f4e66" stroke="#2f4e66"></path><path d="M675 580.4L675 544.1L637.8 563.4Z" fill="#4c7798" stroke="#4c7798"></path><path d="M675 162.5L622.6 166.5L614.6 211.8Z" fill="#2f4e66" stroke="#2f4e66"></path><path d="M615.8 165.5L632.8 131.7L581.8 147.1Z" fill="#5685aa" stroke="#5685aa"></path><path d="M107.4 85.7L118.4 130.1L146.6 100.1Z" fill="#0c1c29" stroke="#0c1c29"></path><path d="M107.4 85.7L66.2 137.7L118.4 130.1Z" fill="#142838" stroke="#142838"></path><path d="M0 171.1L0 221.5L50.4 200.8Z" fill="#0c1c29" stroke="#0c1c29"></path><path d="M69.4 723.5L145.6 728.9L117.6 674.2Z" fill="#6094bc" stroke="#6094bc"></path><path d="M117.6 674.2L145.6 728.9L173.6 700.5Z" fill="#5685aa" stroke="#5685aa"></path><path d="M229.1 807.3L241.1 749.5L231.9 745.9Z" fill="#5685aa" stroke="#5685aa"></path><path d="M30.2 593.8L65.2 668.2L51.4 569.8Z" fill="#00101c" stroke="#00101c"></path><path d="M0 635.8L65.2 668.2L30.2 593.8Z" fill="#385b76" stroke="#385b76"></path><path d="M675 268.8L675 238.2L619.6 282.6Z" fill="#00101c" stroke="#00101c"></path><path d="M321.5 799.9L394.7 774.3L391.7 742.9Z" fill="#264156" stroke="#264156"></path><path d="M401.9 758.3L456.1 785.3L426.7 730.5Z" fill="#142838" stroke="#142838"></path><path d="M577.8 729.5L586.8 637.2L560.6 651.8Z" fill="#6094bc" stroke="#6094bc"></path><path d="M626.6 607.4L675 580.4L637.8 563.4Z" fill="#6094bc" stroke="#6094bc"></path><path d="M588.6 44.4L543.6 78.7L581.8 147.1Z" fill="#264156" stroke="#264156"></path><path d="M0 489.1L0 594.4L8.2 566.1Z" fill="#6094bc" stroke="#6094bc"></path><path d="M8.2 566.1L0 594.4L30.2 593.8Z" fill="#6094bc" stroke="#6094bc"></path><path d="M131.6 28.4L131.6 70.7L176.9 0Z" fill="#426987" stroke="#426987"></path><path d="M131.6 70.7L213.1 93.7L176.9 0Z" fill="#385b76" stroke="#385b76"></path><path d="M131.6 70.7L107.4 85.7L146.6 100.1Z" fill="#4c7798" stroke="#4c7798"></path><path d="M377.7 15.4L314.5 57.7L394.9 51.7Z" fill="#1d3447" stroke="#1d3447"></path><path d="M277.3 39.4L247.1 22.4L235.9 52.7Z" fill="#1d3447" stroke="#1d3447"></path><path d="M229.1 807.3L231.9 745.9L221.1 742.9Z" fill="#385b76" stroke="#385b76"></path><path d="M241.1 749.5L279.3 782.9L296.3 672.5Z" fill="#426987" stroke="#426987"></path><path d="M429.9 0L394.9 51.7L454.9 52.4Z" fill="#00101c" stroke="#00101c"></path><path d="M429.9 0L377.7 15.4L394.9 51.7Z" fill="#385b76" stroke="#385b76"></path><path d="M675 614.2L675 580.4L626.6 607.4Z" fill="#4c7798" stroke="#4c7798"></path><path d="M525.4 55.4L512.1 49.4L527.4 111.7Z" fill="#00101c" stroke="#00101c"></path><path d="M588.6 44.4L525.4 55.4L543.6 78.7Z" fill="#142838" stroke="#142838"></path><path d="M543.6 78.7L525.4 55.4L527.4 111.7Z" fill="#264156" stroke="#264156"></path><path d="M429.9 0L340.7 0L377.7 15.4Z" fill="#6094bc" stroke="#6094bc"></path><path d="M377.7 15.4L340.7 0L314.5 57.7Z" fill="#385b76" stroke="#385b76"></path><path d="M279.3 782.9L321.5 799.9L296.3 672.5Z" fill="#2f4e66" stroke="#2f4e66"></path><path d="M0 594.4L0 624.2L30.2 593.8Z" fill="#2f4e66" stroke="#2f4e66"></path><path d="M65.2 668.2L57.4 697.2L117.6 674.2Z" fill="#4c7798" stroke="#4c7798"></path><path d="M340.7 0L297.3 0L314.5 57.7Z" fill="#5685aa" stroke="#5685aa"></path><path d="M176.9 0L213.1 93.7L235.9 52.7Z" fill="#264156" stroke="#264156"></path><path d="M297.3 0L294.5 0L277.3 39.4Z" fill="#1d3447" stroke="#1d3447"></path><path d="M675 162.5L632.8 131.7L622.6 166.5Z" fill="#264156" stroke="#264156"></path><path d="M622.6 166.5L632.8 131.7L615.8 165.5Z" fill="#00101c" stroke="#00101c"></path><path d="M66.2 137.7L0 171.1L50.4 200.8Z" fill="#385b76" stroke="#385b76"></path><path d="M0 91.7L0 171.1L66.2 137.7Z" fill="#264156" stroke="#264156"></path><path d="M456.1 785.3L401.9 758.3L394.7 774.3Z" fill="#2f4e66" stroke="#2f4e66"></path><path d="M456.1 785.3L511.1 761.9L474.9 732.9Z" fill="#1d3447" stroke="#1d3447"></path><path d="M474.9 732.9L511.1 761.9L496.1 721.5Z" fill="#00101c" stroke="#00101c"></path><path d="M496.1 721.5L541.4 750.5L498.4 711.2Z" fill="#5685aa" stroke="#5685aa"></path><path d="M626.6 642.2L675 614.2L626.6 607.4Z" fill="#6094bc" stroke="#6094bc"></path><path d="M675 638.8L675 614.2L626.6 642.2Z" fill="#385b76" stroke="#385b76"></path><path d="M0 635.8L57.4 697.2L65.2 668.2Z" fill="#2f4e66" stroke="#2f4e66"></path><path d="M145.6 728.9L148.6 770.3L221.1 742.9Z" fill="#00101c" stroke="#00101c"></path><path d="M279.3 782.9L319.5 814.3L321.5 799.9Z" fill="#6094bc" stroke="#6094bc"></path><path d="M455.9 818.6L456.1 785.3L417.7 834.6Z" fill="#00101c" stroke="#00101c"></path><path d="M0 624.2L0 635.8L30.2 593.8Z" fill="#5685aa" stroke="#5685aa"></path><path d="M294.5 0L248.1 0L247.1 22.4Z" fill="#0c1c29" stroke="#0c1c29"></path><path d="M525.4 798.3L541.4 750.5L511.1 761.9Z" fill="#142838" stroke="#142838"></path><path d="M511.1 761.9L541.4 750.5L496.1 721.5Z" fill="#426987" stroke="#426987"></path><path d="M541.4 750.5L577.8 729.5L498.4 711.2Z" fill="#385b76" stroke="#385b76"></path><path d="M465.1 0L454.9 52.4L512.1 49.4Z" fill="#5685aa" stroke="#5685aa"></path><path d="M465.1 0L429.9 0L454.9 52.4Z" fill="#264156" stroke="#264156"></path><path d="M69.4 723.5L148.6 770.3L145.6 728.9Z" fill="#2f4e66" stroke="#2f4e66"></path><path d="M261.1 817.6L319.5 814.3L279.3 782.9Z" fill="#00101c" stroke="#00101c"></path><path d="M321.5 799.9L319.5 814.3L394.7 774.3Z" fill="#142838" stroke="#142838"></path><path d="M675 238.2L675 162.5L614.6 211.8Z" fill="#6094bc" stroke="#6094bc"></path><path d="M64.2 723.9L69.4 723.5L57.4 697.2Z" fill="#4c7798" stroke="#4c7798"></path><path d="M57.4 697.2L69.4 723.5L117.6 674.2Z" fill="#5685aa" stroke="#5685aa"></path><path d="M675 712.5L675 638.8L626.6 642.2Z" fill="#6094bc" stroke="#6094bc"></path><path d="M183.9 818.6L229.1 807.3L221.1 742.9Z" fill="#2f4e66" stroke="#2f4e66"></path><path d="M18.2 719.5L64.2 723.9L57.4 697.2Z" fill="#2f4e66" stroke="#2f4e66"></path><path d="M69.4 723.5L49.4 778.3L148.6 770.3Z" fill="#00101c" stroke="#00101c"></path><path d="M573.4 0L465.1 0L512.1 49.4Z" fill="#426987" stroke="#426987"></path><path d="M573.4 0L512.1 49.4L525.4 55.4Z" fill="#426987" stroke="#426987"></path><path d="M588.6 44.4L581.8 147.1L632.8 131.7Z" fill="#6094bc" stroke="#6094bc"></path><path d="M131.6 70.7L131.6 28.4L107.4 85.7Z" fill="#4c7798" stroke="#4c7798"></path><path d="M0 87.4L0 91.7L66.2 137.7Z" fill="#4c7798" stroke="#4c7798"></path><path d="M176.9 0L235.9 52.7L247.1 22.4Z" fill="#426987" stroke="#426987"></path><path d="M229.1 807.3L261.1 817.6L279.3 782.9Z" fill="#385b76" stroke="#385b76"></path><path d="M248.1 0L176.9 0L247.1 22.4Z" fill="#1d3447" stroke="#1d3447"></path><path d="M176.9 0L153.9 4.4L131.6 28.4Z" fill="#5685aa" stroke="#5685aa"></path><path d="M455.9 818.6L492.1 805.6L456.1 785.3Z" fill="#00101c" stroke="#00101c"></path><path d="M456.1 785.3L492.1 805.6L511.1 761.9Z" fill="#142838" stroke="#142838"></path><path d="M541.4 750.5L586.6 755.5L577.8 729.5Z" fill="#1d3447" stroke="#1d3447"></path><path d="M456.1 785.3L394.7 774.3L417.7 834.6Z" fill="#6094bc" stroke="#6094bc"></path><path d="M417.7 834.6L394.7 774.3L319.5 814.3Z" fill="#385b76" stroke="#385b76"></path><path d="M569.4 780.9L586.6 755.5L541.4 750.5Z" fill="#2f4e66" stroke="#2f4e66"></path><path d="M577.8 729.5L675 712.5L626.6 642.2Z" fill="#5685aa" stroke="#5685aa"></path><path d="M675 108.1L588.6 44.4L632.8 131.7Z" fill="#385b76" stroke="#385b76"></path><path d="M545.6 838.3L525.4 798.3L492.1 805.6Z" fill="#4c7798" stroke="#4c7798"></path><path d="M492.1 805.6L525.4 798.3L511.1 761.9Z" fill="#1d3447" stroke="#1d3447"></path><path d="M360.7 900L417.7 834.6L319.5 814.3Z" fill="#5685aa" stroke="#5685aa"></path><path d="M603.8 791.3L580.6 789.9L577.8 834.6Z" fill="#264156" stroke="#264156"></path><path d="M229.1 807.3L250.3 845.3L261.1 817.6Z" fill="#4c7798" stroke="#4c7798"></path><path d="M261.1 817.6L250.3 845.3L319.5 814.3Z" fill="#426987" stroke="#426987"></path><path d="M148.6 770.3L183.9 818.6L221.1 742.9Z" fill="#1d3447" stroke="#1d3447"></path><path d="M180.9 832.3L183.9 818.6L93.2 819.3Z" fill="#5685aa" stroke="#5685aa"></path><path d="M0 635.8L18.2 719.5L57.4 697.2Z" fill="#5685aa" stroke="#5685aa"></path><path d="M93.2 819.3L183.9 818.6L148.6 770.3Z" fill="#5685aa" stroke="#5685aa"></path><path d="M675 162.5L675 109.7L632.8 131.7Z" fill="#142838" stroke="#142838"></path><path d="M525.4 798.3L569.4 780.9L541.4 750.5Z" fill="#6094bc" stroke="#6094bc"></path><path d="M675 736.9L675 712.5L577.8 729.5Z" fill="#385b76" stroke="#385b76"></path><path d="M153.9 4.4L125.6 0L131.6 28.4Z" fill="#426987" stroke="#426987"></path><path d="M131.6 28.4L87.4 0.4L107.4 85.7Z" fill="#1d3447" stroke="#1d3447"></path><path d="M176.9 0L125.6 0L153.9 4.4Z" fill="#426987" stroke="#426987"></path><path d="M675 109.7L675 108.1L632.8 131.7Z" fill="#142838" stroke="#142838"></path><path d="M0 87.4L66.2 137.7L107.4 85.7Z" fill="#142838" stroke="#142838"></path><path d="M180.9 832.3L250.3 845.3L229.1 807.3Z" fill="#6094bc" stroke="#6094bc"></path><path d="M34.2 30.4L0 87.4L107.4 85.7Z" fill="#264156" stroke="#264156"></path><path d="M49.4 778.3L69.4 723.5L64.2 723.9Z" fill="#2f4e66" stroke="#2f4e66"></path><path d="M183.9 818.6L180.9 832.3L229.1 807.3Z" fill="#385b76" stroke="#385b76"></path><path d="M563.6 831.6L580.6 789.9L569.4 780.9Z" fill="#1d3447" stroke="#1d3447"></path><path d="M569.4 780.9L580.6 789.9L586.6 755.5Z" fill="#1d3447" stroke="#1d3447"></path><path d="M569.4 780.9L525.4 798.3L563.6 831.6Z" fill="#4c7798" stroke="#4c7798"></path><path d="M675 736.9L577.8 729.5L670.8 748.9Z" fill="#5685aa" stroke="#5685aa"></path><path d="M609.6 0L573.4 0L588.6 44.4Z" fill="#2f4e66" stroke="#2f4e66"></path><path d="M588.6 44.4L573.4 0L525.4 55.4Z" fill="#0c1c29" stroke="#0c1c29"></path><path d="M125.6 0L87.4 0.4L131.6 28.4Z" fill="#0c1c29" stroke="#0c1c29"></path><path d="M0 635.8L0 732.5L18.2 719.5Z" fill="#6094bc" stroke="#6094bc"></path><path d="M18.2 719.5L49.4 778.3L64.2 723.9Z" fill="#385b76" stroke="#385b76"></path><path d="M125.6 0L81.4 0L87.4 0.4Z" fill="#385b76" stroke="#385b76"></path><path d="M87.4 0.4L81.4 0L107.4 85.7Z" fill="#142838" stroke="#142838"></path><path d="M0 762.9L49.4 778.3L18.2 719.5Z" fill="#4c7798" stroke="#4c7798"></path><path d="M81.4 0L34.2 30.4L107.4 85.7Z" fill="#385b76" stroke="#385b76"></path><path d="M545.6 838.3L492.1 805.6L498.4 900Z" fill="#142838" stroke="#142838"></path><path d="M580.6 789.9L603.8 791.3L586.6 755.5Z" fill="#0c1c29" stroke="#0c1c29"></path><path d="M670.8 748.9L577.8 729.5L586.6 755.5Z" fill="#1d3447" stroke="#1d3447"></path><path d="M49.4 797.9L93.2 819.3L49.4 778.3Z" fill="#00101c" stroke="#00101c"></path><path d="M49.4 778.3L93.2 819.3L148.6 770.3Z" fill="#426987" stroke="#426987"></path><path d="M307.5 900L319.5 814.3L250.3 845.3Z" fill="#142838" stroke="#142838"></path><path d="M81.4 0L57.2 0L34.2 30.4Z" fill="#264156" stroke="#264156"></path><path d="M642.8 0L609.6 0L588.6 44.4Z" fill="#6094bc" stroke="#6094bc"></path><path d="M603.8 791.3L670.8 748.9L586.6 755.5Z" fill="#0c1c29" stroke="#0c1c29"></path><path d="M454.1 900L455.9 818.6L417.7 834.6Z" fill="#6094bc" stroke="#6094bc"></path><path d="M498.4 900L492.1 805.6L455.9 818.6Z" fill="#385b76" stroke="#385b76"></path><path d="M603.8 791.3L675 776.3L670.8 748.9Z" fill="#385b76" stroke="#385b76"></path><path d="M0 766.3L49.4 797.9L49.4 778.3Z" fill="#5685aa" stroke="#5685aa"></path><path d="M545.6 838.3L563.6 831.6L525.4 798.3Z" fill="#1d3447" stroke="#1d3447"></path><path d="M0 732.5L0 762.9L18.2 719.5Z" fill="#5685aa" stroke="#5685aa"></path><path d="M0 762.9L0 766.3L49.4 778.3Z" fill="#0c1c29" stroke="#0c1c29"></path><path d="M545.6 838.3L577.8 834.6L563.6 831.6Z" fill="#00101c" stroke="#00101c"></path><path d="M563.6 831.6L577.8 834.6L580.6 789.9Z" fill="#5685aa" stroke="#5685aa"></path><path d="M307.5 900L250.3 845.3L282.1 900Z" fill="#1d3447" stroke="#1d3447"></path><path d="M307.5 900L334.3 900L319.5 814.3Z" fill="#426987" stroke="#426987"></path><path d="M545.6 838.3L544.4 891.6L577.8 834.6Z" fill="#142838" stroke="#142838"></path><path d="M334.3 900L355.5 899.6L319.5 814.3Z" fill="#0c1c29" stroke="#0c1c29"></path><path d="M275.3 897.6L250.3 845.3L224.9 900Z" fill="#264156" stroke="#264156"></path><path d="M334.3 900L360.7 900L355.5 899.6Z" fill="#0c1c29" stroke="#0c1c29"></path><path d="M355.5 899.6L360.7 900L319.5 814.3Z" fill="#264156" stroke="#264156"></path><path d="M224.9 900L250.3 845.3L180.9 832.3Z" fill="#1d3447" stroke="#1d3447"></path><path d="M275.3 897.6L282.1 900L250.3 845.3Z" fill="#264156" stroke="#264156"></path><path d="M675 19.4L642.8 0L588.6 44.4Z" fill="#264156" stroke="#264156"></path><path d="M675 807.6L675 776.3L603.8 791.3Z" fill="#4c7798" stroke="#4c7798"></path><path d="M670.8 748.9L675 776.3L675 736.9Z" fill="#264156" stroke="#264156"></path><path d="M360.7 900L438.9 900L417.7 834.6Z" fill="#5685aa" stroke="#5685aa"></path><path d="M97.6 863.6L180.9 832.3L93.2 819.3Z" fill="#426987" stroke="#426987"></path><path d="M112.6 900L224.9 900L180.9 832.3Z" fill="#0c1c29" stroke="#0c1c29"></path><path d="M275.3 897.6L224.9 900L282.1 900Z" fill="#142838" stroke="#142838"></path><path d="M675 108.1L675 19.4L588.6 44.4Z" fill="#5685aa" stroke="#5685aa"></path><path d="M675 19.4L670.8 12.4L642.8 0Z" fill="#0c1c29" stroke="#0c1c29"></path><path d="M438.9 900L454.1 900L417.7 834.6Z" fill="#426987" stroke="#426987"></path><path d="M57.2 0L0 0L34.2 30.4Z" fill="#142838" stroke="#142838"></path><path d="M34.2 30.4L0 0L0 87.4Z" fill="#1d3447" stroke="#1d3447"></path><path d="M79.4 880.6L93.2 819.3L49.4 797.9Z" fill="#2f4e66" stroke="#2f4e66"></path><path d="M79.4 880.6L97.6 863.6L93.2 819.3Z" fill="#1d3447" stroke="#1d3447"></path><path d="M675 19.4L675 0L670.8 12.4Z" fill="#4c7798" stroke="#4c7798"></path><path d="M670.8 12.4L675 0L642.8 0Z" fill="#6094bc" stroke="#6094bc"></path><path d="M454.1 900L498.4 900L455.9 818.6Z" fill="#264156" stroke="#264156"></path><path d="M577.8 834.6L675 807.6L603.8 791.3Z" fill="#2f4e66" stroke="#2f4e66"></path><path d="M638.8 900L675 807.6L577.8 834.6Z" fill="#6094bc" stroke="#6094bc"></path><path d="M498.4 900L544.4 891.6L545.6 838.3Z" fill="#0c1c29" stroke="#0c1c29"></path><path d="M13.2 862.6L79.4 880.6L49.4 797.9Z" fill="#385b76" stroke="#385b76"></path><path d="M97.6 863.6L112.6 900L180.9 832.3Z" fill="#0c1c29" stroke="#0c1c29"></path><path d="M106.4 900L112.6 900L97.6 863.6Z" fill="#00101c" stroke="#00101c"></path><path d="M79.4 880.6L106.4 900L97.6 863.6Z" fill="#00101c" stroke="#00101c"></path><path d="M0 766.3L13.2 862.6L49.4 797.9Z" fill="#4c7798" stroke="#4c7798"></path><path d="M79.4 880.6L39.2 900L106.4 900Z" fill="#264156" stroke="#264156"></path><path d="M544.4 891.6L597.6 900L577.8 834.6Z" fill="#264156" stroke="#264156"></path><path d="M498.4 900L597.6 900L544.4 891.6Z" fill="#00101c" stroke="#00101c"></path><path d="M0 766.3L0 868.6L13.2 862.6Z" fill="#426987" stroke="#426987"></path><path d="M13.2 862.6L39.2 900L79.4 880.6Z" fill="#1d3447" stroke="#1d3447"></path><path d="M0 900L39.2 900L13.2 862.6Z" fill="#4c7798" stroke="#4c7798"></path><path d="M597.6 900L638.8 900L577.8 834.6Z" fill="#00101c" stroke="#00101c"></path><path d="M0 868.6L0 900L13.2 862.6Z" fill="#385b76" stroke="#385b76"></path><path d="M638.8 900L675 900L675 807.6Z" fill="#00101c" stroke="#00101c"></path></g></svg>